<?xml version="1.0" encoding="utf-8"?>
<!-- Generator: Adobe Illustrator 24.3.0, SVG Export Plug-In . SVG Version: 6.00 Build 0)  -->
<svg version="1.1" id="Layer_1" xmlns="http://www.w3.org/2000/svg" xmlns:xlink="http://www.w3.org/1999/xlink" x="0px" y="0px"
	 viewBox="0 0 1361 1018" style="enable-background:new 0 0 1361 1018;" xml:space="preserve">
<g id="countries">
	<polygon class="countries" points="274.1,563 242.7,591.5 198.8,581.5 184.5,574.6 158.5,549.3 156.4,539.2 173.5,510.1 191,528.9 199.2,528.1 207.6,541.4 227.7,544.6"/>
	<polygon class="countries" points="272.7,526.2 251.6,554.1 227.7,544.6 207.6,541.4 199.2,528.1 191,528.9 173.5,510.1 186.7,487.7 211.3,445.9"/>
	<polygon class="countries" points="389.4,522.2 351.3,558 296,559.3 274.1,563 251.6,554.1 272.7,526.2 307.7,514.8 348.2,496.4"/>
	<polygon class="countries" points="211.3,445.9 272.7,526.2 307.7,514.8 285.8,493.8 215.2,439.1"/>
	<polygon class="countries" points="351.3,558 320.6,609.2 242.7,591.5 274.1,563 296,559.3"/>
	<polygon class="countries" points="444.4,714.5 394.6,751.3 352.1,701.8 342.5,673.5 320.6,609.2 466,669.3"/>
	<polygon class="countries" points="542.9,695.9 505.3,738.2 479.3,767.4 449.7,815.6 394.6,751.3 444.4,714.5 466,669.3 499.8,695.9"/>
	<polygon class="countries" points="564.1,820.9 536.7,838.9 449.7,815.6 479.3,767.4 535.9,796.8"/>
	<polygon class="countries" points="760.1,710.8 759.6,733.7 739.4,786.5 672.6,764 643,746.7 620.1,738.6 582.6,657.9 611.4,655.1 677.4,660.6"/>
	<polygon class="countries" points="601.2,823.4 564.1,820.9 535.9,796.8 479.3,767.4 542.9,695.9 563.5,695.9 582.6,657.9 620.1,738.6 608.2,779.8"/>
	<polygon class="countries" points="672.6,764 645.6,787.5 644.2,830.1 601.2,823.4 608.2,779.8 620.1,738.6 643,746.7"/>
	<polygon class="countries" points="728.3,815.6 703,836.7 687.3,828.1 644.2,830.1 645.6,787.5 672.6,764 739.4,786.5"/>
	<polygon class="countries" points="687.3,828.1 703,836.7 671.7,862.8 640.9,873.6 616.5,825.8 644.2,830.1"/>
	<polygon class="countries" points="562.4,871.1 564.1,895 538.7,898.5 526,895.9 502.1,883.2 494.4,867.7 449.7,815.6 536.7,838.9"/>
	<polygon class="countries" points="512,580.4 504.5,611.2 441.5,659.4 320.6,609.2 351.3,558 416.6,496.7 484.3,571.3"/>
	<polygon class="countries" points="901,451.8 878.6,525.1 869.9,553.3 797.7,546.9 785.3,539.5 757.1,458.5 792.4,439.8 834.4,429.1"/>
	<polygon class="countries" points="801.9,609.2 815.9,627.1 805.2,640.6 760.1,710.8 705.5,677.7 723.7,625.2 742.7,607.7 769.5,602.7"/>
	<polygon class="countries" points="869.9,553.3 867.1,562.5 846.3,588.8 815.9,627.1 801.9,609.2 790.7,584.9 797.7,546.9"/>
	<polygon class="countries" points="771.5,553 769.5,602.7 742.7,607.7 719.4,597 679,577.5 685.6,565.3 723,559.2 721.9,548.6 727.3,545 758.2,547.5"/>
	<polygon class="countries" points="785.3,539.5 771.5,553 758.2,547.5 727.3,545 721.9,548.6 723,559.2 685.6,565.3 683.1,553.3 686.4,537.5 727.9,513.1 750.1,503.1 771.5,499.8"/>
	<polygon class="countries" points="790.7,584.9 801.9,609.2 769.5,602.7 769.5,582.4 771.5,553 785.3,539.5 797.7,546.9"/>
	<polygon class="countries" points="693.2,533.5 686.4,537.5 683.1,553.3 645.4,555.2 667.3,498.1 681.3,498.5"/>
	<polygon class="countries" points="667.3,498.1 645.4,555.2 628.1,549.8 595.6,520.8 637.4,497.2"/>
	<polygon class="countries" points="771.5,499.8 750.1,503.1 727.9,513.1 693.2,533.5 681.3,498.5 757.1,458.5"/>
	<polygon class="countries" points="914,262.9 859.5,321.3 817.6,249.3 862.2,236.7"/>
	<polygon class="countries" points="907.3,699.3 872.5,755.2 855,737.2 845,715.2 860.4,686.9"/>
	<polygon class="countries" points="824.5,829 808.7,849.5 795.3,850.1 798.8,834.8 781.8,830.8 758.6,865.6 744.1,860.7 740.7,850.9 750,824.6 769.7,805.5 783.7,791.7 794.8,795.5 803.9,802 796.7,820.6 808.7,822.1 816.4,814.3"/>
	<polygon class="countries" points="933.1,822.6 931,825 878.6,770.1 872.5,755.2 891.9,723.7 915.4,765.9"/>
	<polygon class="countries" points="788.5,875.6 758.6,865.6 767.2,851.4 781.8,830.8 798.8,834.8 795.3,850.1 808.7,849.5"/>
	<polygon class="countries" points="849.8,834.4 840.4,864.1 840.7,880.6 788.5,875.6 824.5,829"/>
	<polygon class="countries" points="931,825 924.6,831.7 846.1,801 836.9,788.6 843.5,778.5 841.4,762.3 855,737.2 872.5,755.2 878.6,770.1"/>
	<polygon class="countries" points="841.4,762.3 843.5,778.5 836.9,788.6 813.1,780.2 814.9,753"/>
	<polygon class="countries" points="759.6,733.7 783.7,791.7 769.7,805.5 750,824.6 740.7,850.9 728.3,815.6"/>
	<polygon class="countries" points="796.7,820.6 803.9,802 813.1,780.2 836.9,788.6 846.1,801 816.4,814.3 808.7,822.1"/>
	<polygon class="countries" points="816.4,814.3 824.5,829 849.8,834.4 858.9,806 846.1,801"/>
	<polygon class="countries" points="907.3,699.3 787.8,667.7 805.2,640.6 846.3,588.8 921,622.6"/>
	<polygon class="countries" points="860.4,686.9 845,715.2 855,737.2 841.4,762.3 759.6,733.7 760.1,710.8 787.8,667.7"/>
	<polygon class="countries" points="813.1,780.2 803.9,802 794.8,795.5 783.7,791.7 759.6,733.7 814.9,753"/>
	<polygon class="countries" points="995.5,704.1 980.6,755.8 967.7,783.2 933.1,822.6 915.4,765.9 934.8,755.8 907.3,699.3 921,622.6 990.8,654.2"/>
	<polygon class="countries" points="891.9,723.7 907.3,699.3 934.8,755.8 915.4,765.9"/>
	<polygon class="countries" points="650.8,326.3 655.3,332.2 639.5,338.1 636.1,396.7 623.4,403.6 616.9,351.1 621.8,336.1 633.4,312"/>
	<polygon class="countries" points="619.7,276 602.6,297.4 599.3,352.7 556.2,339.3 542.4,305.2 551.7,280 605.1,256"/>
	<polygon class="countries" points="676.1,309.5 661.6,327.6 655.3,332.2 650.8,326.3 633.4,312 637.5,296.8 651.7,294.6"/>
	<polygon class="countries" points="661.6,327.6 655.3,332.2 671.8,347 691.6,328.2 684.2,322.8 676.1,309.5"/>
	<polygon class="countries" points="781,339.3 720.3,349.3 684.2,322.8 717.8,310.5 748.6,324.4"/>
	<polygon class="countries" points="748.4,283.9 748.6,324.4 717.8,310.5 684.2,322.8 676.1,309.5 651.7,294.6 637.5,296.8 644.9,283.9 688.1,265.5 702.4,247.9"/>
	<polygon class="countries" points="633.4,312 621.8,336.1 616.9,351.1 599.3,352.7 602.6,297.4 619.7,276 637.5,296.8"/>
	<polygon class="countries" points="702.4,247.9 688.1,265.5 644.9,283.9 637.5,296.8 619.7,276 605.1,256 637.5,241.5"/>
	<polygon class="countries" points="563.5,695.9 499.8,695.9 466,669.3 441.5,659.4 504.5,611.2 529.6,632 578.1,643.4 582.6,657.9"/>
	<polygon class="countries" points="578.1,643.4 529.6,632 504.5,611.2 512,580.4 572.2,588.8 566.3,605.8"/>
	<polygon class="countries" points="683.1,553.3 685.6,565.3 679,577.5 650.7,606.9 575.3,634.5 582.6,657.9 566.3,605.8 595.6,520.8 628.1,549.8 645.4,555.2"/>
	<polygon class="countries" points="609.7,411.1 593.5,436.6 568.4,423.6 516.3,408.8 511.9,387.6 516,376.4 563.7,386.4"/>
	<polygon class="countries" points="623.4,403.6 609.7,411.1 563.7,386.4 586.1,348.6 599.3,352.7 616.9,351.1"/>
	<polygon class="countries" points="586.1,348.6 563.7,386.4 516,376.4 542.4,305.2 556.2,339.3"/>
	<polygon class="countries" points="323.8,384.8 326.8,421.8 319.5,434.8 325.3,458.5 348.2,496.4 307.7,514.8 285.8,493.8 215.2,439.1 243.9,390.4 264.2,386.6 284.9,383.6"/>
	<polygon class="countries" points="390.4,416.1 374.4,433 325.3,458.5 319.5,434.8 326.8,421.8 323.8,384.8 389.3,386.7"/>
	<polygon class="countries" points="473,443.7 424,489.7 420.2,426.1 402.2,418.5 390.4,416.1 389.3,386.7 447.6,387.1"/>
	<polygon class="countries" points="424,489.7 407.2,505.5 389.4,497.1 374.4,433 390.4,416.1 402.2,418.5 420.2,426.1"/>
	<polygon class="countries" points="389.4,522.2 348.2,496.4 325.3,458.5 374.4,433 389.4,497.1 407.2,505.5"/>
	<polygon class="countries" points="616.5,825.8 640.9,873.6 590.5,891.3 564.1,895 562.4,871.1 536.7,838.9 564.1,820.9 601.2,823.4"/>
	<polygon class="countries" points="964.7,473.1 979.8,536.3 982.3,562.8 878.6,525.1 901,451.8"/>
	<polygon class="countries" points="742.7,607.7 723.7,625.2 705.5,677.7 677.4,660.6 611.4,655.1 582.6,657.9 575.3,634.5 650.7,606.9 679,577.5 721.4,597.9"/>
	<polygon class="countries" points="924.6,831.7 886.5,875.6 854.8,881.9 840.7,880.6 840.4,864.1 858.9,806"/>
	<polygon class="countries" points="990.8,654.2 846.3,588.8 867.1,562.5 878.6,525.1 982.3,562.8"/>
	<polygon class="countries" points="974,389.6 964.7,473.1 878.7,444.2 856.5,377.2 878.3,360.6 885.7,361.9 905.1,358.1 932.3,352.8 962.1,335.3"/>
	<polygon class="countries" points="595.6,520.8 572.2,588.8 551.5,565.3 546.3,536.6 582.2,492.8"/>
	<polygon class="countries" points="572.2,588.8 512,580.4 484.3,571.3 490.4,550.2 536.6,529.9 546.3,536.6 551.5,565.3"/>
	<polygon class="countries" points="507.8,507.7 490.4,550.2 484.3,571.3 416.6,496.7 453.8,461.7"/>
	<polygon class="countries" points="582.2,492.8 531.6,480.2 523.4,494.1 507.8,507.7 453.8,461.7 483.3,434 508.2,449.8 547.8,448.5"/>
	<polygon class="countries" points="546.3,536.6 536.6,529.9 490.4,550.2 507.8,507.7 523.4,494.1 531.6,480.2 582.2,492.8"/>
	<polygon class="countries" points="593.5,436.6 582.2,492.8 558.1,461.7 558.7,420.8 568.4,423.6"/>
	<polygon class="countries" points="718.7,426.5 757.1,458.5 716.1,480.1 702.2,466 651.9,437.9 705.4,406.9"/>
	<polygon class="countries" points="697.4,395 705.4,406.9 651.9,437.9 609.7,411.1 654.9,386.4 678.2,380.3"/>
	<polygon class="countries" points="779.4,411.7 792.4,439.8 757.1,458.5 718.7,426.5 697.4,395 703.3,369.9 757.1,398.2 776.1,382.6"/>
	<polygon class="countries" points="720.3,349.3 705.3,357.6 703.3,369.9 697.4,395 678.2,380.3 671.8,347 691.6,328.2"/>
	<polygon class="countries" points="781,339.3 775.4,360 776.1,382.6 757.1,398.2 703.3,369.9 705.3,357.6 720.3,349.3"/>
	<polygon class="countries" points="678.2,380.3 654.9,386.4 636.1,396.7 639.5,338.1 655.3,332.2 671.8,347"/>
	<polygon class="countries" points="609.7,411.1 651.9,437.9 622.2,495.2 637.4,497.2 595.6,520.8 582.2,492.8 593.5,436.6"/>
	<polygon class="countries" points="547.8,448.5 508.2,449.8 483.3,434 504.7,413.9 516.3,408.8 558.7,420.8 558.1,461.7"/>
	<polygon class="countries" points="516.3,408.8 504.7,413.9 473,443.7 447.6,387.1 511.9,387.6"/>
	<polygon class="countries" points="878.3,360.6 842.6,387.8 804.4,389 776.1,382.6 775.4,360 781,339.3 748.6,324.4 748.4,283.9 761.4,279.3 771.6,271.7 783.4,290 844.5,295.5 859.5,321.3 854.8,341.9"/>
	<polygon class="countries" points="962.1,335.3 932.3,352.8 885.7,361.9 878.3,360.6 854.8,341.9 859.5,321.3 914,262.9 944.3,278.2 955.3,304.2"/>
	<polygon class="countries" points="787.6,167 762,203.4 718.5,260.5 702.4,247.9 684,213.9 708.9,174.6 731.8,158.6 751.9,153.4 761.6,155.2"/>
	<polygon class="countries" points="833.4,199.5 840.8,209 778.3,219.9 762,203.4 787.6,167 802.6,174.3"/>
	<polygon class="countries" points="862.2,236.7 792.2,256.5 779,235.9 778.3,219.9 840.8,209"/>
	<polygon class="countries" points="779,235.9 792.2,256.5 761.4,279.3 748.4,283.9 718.5,260.5 762,203.4 778.3,219.9"/>
	<polygon class="countries" points="842.6,387.8 856.5,377.2 878.7,444.2 834.4,429.1 792.4,439.8 779.4,411.7 776.1,382.6 804.4,389"/>
	<polygon class="countries" points="817.6,249.3 844.5,295.5 804.5,292.1 783.4,290 771.6,271.7 792.2,256.5"/>
	<polygon class="countries" points="716.1,480.1 681.3,498.5 637.4,497.2 622.2,495.2 651.9,437.9 702.2,466"/>
</g>
</svg>
