<?xml version="1.0" encoding="utf-8"?>
<!-- Generator: Adobe Illustrator 24.3.0, SVG Export Plug-In . SVG Version: 6.00 Build 0)  -->
<svg version="1.1" id="Layer_1" xmlns="http://www.w3.org/2000/svg" xmlns:xlink="http://www.w3.org/1999/xlink" x="0px" y="0px"
	 viewBox="0 0 1361 1016" style="enable-background:new 0 0 1361 1016;" xml:space="preserve">
<style type="text/css">
	.st0{fill:none;stroke:#000000;stroke-miterlimit:10;}
	.st1{display:none;opacity:0.31;}
	.st2{display:inline;fill:#FFFFFF;stroke:#000000;stroke-miterlimit:10;}
	.st3{display:none;opacity:0.12;}
	.st4{display:inline;fill:none;stroke:#000000;stroke-miterlimit:10;}
	.st5{display:none;}
</style>
<g id="countries_1_">
	<polygon class="countries" points="464.7,521.5 419.2,485.2 382.5,433.2 237.1,461.3 220.1,468.3 189,494 186.5,504.2 246.1,590.2 
		321.5,555.2 369.3,546.3 416,546.6 	"/>
	<polygon class="countries" points="596.6,345.5 649.8,345.5 519,241.7 420.2,339.5 382.5,433.2 556.2,372.3 	"/>
	<polygon class="countries" points="907.4,330.4 906.8,307.1 869.5,224.2 801.8,176.4 781.1,170.3 686.8,207.7 559.2,202 519,241.7 
		649.8,345.5 672.6,345.5 695.4,384 729.8,386.8 808.6,381.2 	"/>
	<polygon class="countries" points="674.3,144 642.9,140.3 627.8,142.9 599.3,155.7 590.1,171.4 559.2,202 647.5,206 664.7,206.8 	"/>
	<polygon class="countries" points="597.4,459.6 551,409.3 526.4,382.8 460.5,405.9 382.5,433.2 419.2,485.2 489.5,540.6 	"/>
	<polygon class="countries" points="1075.7,592.7 1051.5,525.9 972.2,510.6 953.6,492 931.6,500 934.4,540.1 898.3,583.5 945.9,604.8 
		996.1,615.7 	"/>
	<polygon class="countries" points="977.6,419.1 961.2,401.5 907.4,330.4 847.4,361.3 860.8,450.3 879,446.3 	"/>
	<polygon class="countries" points="1051.5,525.9 1035.1,480.6 977.6,419.1 879,446.3 818.5,459.6 805.4,474.5 711,522.8 760.8,546.7 
		813.3,545.4 898.3,583.5 934.4,540.1 931.6,500 953.6,492 972.2,510.6 	"/>
	<polygon class="countries" points="1075.1,790.9 1029.8,729.9 995.5,754.5 994.9,802.3 1029.3,810.6 	"/>
	<polygon class="countries" points="1188.5,337.1 1170.7,284.8 1155.6,257.3 1098.2,202 1093.7,212.7 1057.9,226 1029.8,225.3 1018,196.1 
		982.7,160.1 941.3,163.5 888.3,178.5 869.5,224.2 906.8,307.1 907.4,330.4 961.2,401.5 1035.1,480.6 1124.8,415.4 1181.7,399 	"/>
	<polygon class="countries" points="894.6,704.5 862.5,696.4 852.2,708.3 828.1,710.6 773.8,703.9 768.1,689.8 730.8,648.9 704.1,690.8 
		685.6,700.9 638.5,720.9 658.5,766.8 761,805.7 838.5,799.2 893.4,762.7 895.2,743.4 	"/>
	<polygon class="countries" points="672.6,345.5 596.6,345.5 556.2,372.3 526.4,382.8 597.4,459.6 640.5,453 682.8,453.6 675.9,436.7 
		695.4,384 	"/>
	<polygon class="countries" points="805.4,474.5 818.5,459.6 729.8,386.8 695.4,384 675.9,436.7 711,522.8 	"/>
	<polygon class="countries" points="730.8,648.9 708.5,608.1 678.4,621.3 667,624 616.2,636.3 611,657.7 638.5,720.9 685.6,700.9 
		704.1,690.8 	"/>
	<polygon class="countries" points="565.8,602 464.7,521.5 416,546.6 369.3,546.3 321.5,555.2 246.1,590.2 290.9,654.9 339.9,661.8 
		543.1,658.1 	"/>
	<polygon class="countries" points="781.1,170.3 741.5,158.5 704.9,147.5 674.3,144 665.1,206.8 686.8,207.7 	"/>
	<polygon class="countries" points="1169.8,507.1 1171.8,488.8 1129,490.8 1051.5,525.9 1075.7,592.7 1151.7,571.1 	"/>
	<polygon class="countries" points="847.4,361.3 808.6,381.2 729.8,386.8 818.5,459.6 860.8,450.3 	"/>
	<polygon class="countries" points="1098.2,202 1058.3,163.5 1020.5,157 982.7,160.1 1018,196.1 1029.8,225.3 1057.9,226 1093.7,212.7 	
		"/>
	<polygon class="countries" points="1181.7,399 1124.8,415.4 1035.1,480.6 1051.5,525.9 1129,490.8 1171.8,488.8 	"/>
	<polygon class="countries" points="1162.9,655.7 1151.7,571.1 1075.7,592.7 1016.6,609.8 1020.1,661.2 1126.3,705.8 1140.5,742.2 	"/>
	<polygon class="countries" points="694.9,551.2 711,522.8 682.8,453.6 640.5,453 597.4,459.6 489.5,540.6 565.8,602 589.2,593.5 
		629,594.8 664.3,595.9 667,624 678.4,621.3 708.5,608.1 	"/>
	<polygon class="countries" points="931.1,629.3 924.4,595.2 862.6,567.5 844.7,583.7 787.5,600.2 708.5,608.1 730.8,648.9 768.1,689.8 
		773.8,703.9 828.1,710.6 852.2,708.3 862.5,696.4 894.6,704.5 933.2,708.9 924.8,687.7 	"/>
	<polygon class="countries" points="741.1,604.8 787.5,600.2 739.9,536.7 711,522.8 694.9,551.2 708.5,608.1 	"/>
	<polygon class="countries" points="664.3,595.9 589.2,593.5 565.8,602 602.4,631.1 616.2,636.3 667,624 	"/>
	<polygon class="countries" points="611,657.7 616.2,636.3 602.4,631.1 565.8,602 543.1,658.1 	"/>
	<polygon class="countries" points="1140.5,742.2 1126.3,705.8 1020.1,661.2 998,662.9 926.9,668.2 924.8,687.7 933.2,708.9 894.6,704.5 
		895.2,743.4 893.4,762.7 909.8,768 931,764.7 935.2,753.1 995.5,754.5 1029.8,729.9 1075.1,790.9 1103.7,778.7 1127.3,768.5 	"/>
	<polygon class="countries" points="938,882.1 896.7,833.7 862.3,783.3 838.5,799.2 816.5,833.7 846.2,873.5 873.6,889.7 897.6,895 
		909.1,893.1 	"/>
	<polygon class="countries" points="1029.3,810.6 945.7,790.5 909.8,768 893.4,762.7 862.3,783.3 896.7,833.7 938,882.1 958.2,873.8 
		993.4,849.5 	"/>
	<polygon class="countries" points="1020.1,661.2 1016.6,609.8 996.1,615.7 945.9,604.8 924.4,595.2 931.1,629.3 926.9,668.2 	"/>
	<polygon class="countries" points="945.7,790.5 994.9,802.3 995.5,754.5 935.2,753.1 931,764.7 909.8,768 	"/>
	<polygon class="countries" points="862.6,567.5 813.3,545.4 760.8,546.7 739.9,536.7 787.5,600.2 844.7,583.7 	"/>
</g>
<g id="continents">
	<polygon class="continents" points="602.4,631.1 419.2,485.2 382.5,433.2 237.1,461.3 220.1,468.3 189,494 186.5,504.2 290.9,654.9 
		315.2,658.8 339.9,661.8 453.1,658.7 611,657.7 616.2,636.3 	"/>
	<polygon class="continents" points="907.4,330.4 906.8,307.1 869.5,224.2 801.8,176.4 704.9,147.5 642.9,140.3 627.8,142.9 599.3,155.7 
		590.1,171.4 420.2,339.5 382.5,433.2 483.8,397.7 556.2,372.3 596.6,345.5 672.6,345.5 695.4,384 729.8,386.8 808.6,381.2 	"/>
	<polygon class="continents" points="711,522.8 675.9,436.7 695.4,384 672.6,345.5 596.6,345.5 556.2,372.3 382.5,433.2 419.2,485.2 
		602.4,631.1 616.2,636.3 678.4,621.3 708.5,608.1 694.9,551.2 	"/>
	<polygon class="continents" points="1075.7,592.7 1035.1,480.6 961.2,401.5 907.4,330.4 808.6,381.2 729.8,386.8 695.4,384 675.9,436.7 
		711,522.8 760.8,546.7 813.3,545.4 945.9,604.8 996.1,615.7 	"/>
	<polygon class="continents" points="1162.9,655.7 1151.7,571.1 1126.3,578.1 996.1,615.7 945.9,604.8 813.3,545.4 760.8,546.7 711,522.8 
		694.9,551.2 708.5,608.1 678.4,621.3 640.1,630.5 616.2,636.3 611,657.7 658.5,766.8 761,805.7 838.5,799.2 893.4,762.7 
		908.9,767.5 945.7,790.5 1029.3,810.6 1127.3,768.5 1140.5,742.2 	"/>
	<polygon class="continents" points="1188.5,337.1 1170.7,284.8 1155.3,257 1058.3,163.5 1020.5,157 941.3,163.5 888.3,178.5 869.5,224.2 
		906.8,307.1 907.4,330.4 961.2,401.5 1035.1,480.6 1075.7,592.7 1151.7,571.1 1169.8,507.1 	"/>
	<polygon class="continents" points="1029.3,810.6 945.7,790.5 908.9,767.5 893.4,762.7 838.5,799.2 816.5,833.7 846.2,873.5 873.6,889.7 
		897.6,895 909.1,893.1 922.3,888.6 958.2,873.8 994.9,848.2 	"/>
</g>
</svg>
